# xmcd
#
# Track frame offsets: 
#        150
#        13068
#        34021
#        50165
#        71495
#
# Disc length: 1220 seconds
#
# Revision: 1
# Processed by: cddbd v1.5.2PL0 Copyright (c) Steve Scherf et al.
# Submitted via: ExactAudioCopy v0.99pb5
#
DISCID=3f04c205
DTITLE=Anna Maria Jopek - Mo¿liwev [singiel]
DYEAR=2003
DGENRE=Acoustic
TTITLE0=Mo¿liwe [Live]
TTITLE1=Do Widzenia Teddy [Live]
TTITLE2=I Tylko Mi ¯al [Live]
TTITLE3=Tych Lat Nie Odda Nikt [Live]
TTITLE4=Deszcz [Duet]
EXTD=
EXTT0=
EXTT1=
EXTT2=
EXTT3=
EXTT4=
PLAYORDER=
